<svg width="841" height="508" viewBox="0 0 841 508" fill="none" xmlns="http://www.w3.org/2000/svg">
<g opacity="0.2">
<path d="M810.336 54.7618C824.949 54.7618 836.795 43.7284 836.795 30.118C836.795 16.5077 824.949 5.47437 810.336 5.47437C795.724 5.47437 783.878 16.5077 783.878 30.118C783.878 43.7284 795.724 54.7618 810.336 54.7618Z" fill="black"/>
</g>
<path d="M804.459 49.2874C819.071 49.2874 830.917 38.2541 830.917 24.6437C830.917 11.0334 819.071 0 804.459 0C789.846 0 778 11.0334 778 24.6437C778 38.2541 789.846 49.2874 804.459 49.2874Z" fill="#AFB3FF"/>
<g opacity="0.2">
<path d="M200.5 289.713C179.367 291.168 159.104 297.876 143.517 309.626C117.588 329.169 93.2682 364.398 133.724 418.399C218.045 530.962 412.356 518.258 559.777 481.337C707.197 444.416 981.363 353.577 849.35 154.932C717.338 -43.7141 496.823 172.307 467.452 209.904C425.046 264.189 262.978 285.405 200.5 289.713Z" fill="black"/>
</g>
<path d="M194.303 284.652C173.17 286.107 152.908 292.815 137.32 304.562C111.391 324.105 87.0714 359.334 127.527 413.335C211.848 525.898 406.159 513.194 553.58 476.273C701 439.352 975.166 348.513 843.153 149.868C711.141 -48.7781 490.626 167.243 461.255 204.84C418.853 259.128 256.785 280.344 194.303 284.652Z" fill="#564FD7"/>
<g opacity="0.2">
<path d="M506.845 118.1C506.845 124.521 501.257 129.726 494.363 129.726C487.47 129.726 481.881 124.521 481.881 118.1C481.881 111.679 487.47 106.474 494.363 106.474C501.257 106.474 506.845 111.679 506.845 118.1Z" fill="black"/>
</g>
<path d="M500.964 112.626C500.964 119.046 495.375 124.251 488.482 124.251C481.588 124.251 476 119.046 476 112.626C476 106.205 481.588 101 488.482 101C495.375 101 500.964 106.205 500.964 112.626Z" fill="#5961BE"/>
<g opacity="0.2">
<path d="M342.667 160C352.007 160 359.578 152.948 359.578 144.249C359.578 135.551 352.007 128.499 342.667 128.499C333.328 128.499 325.757 135.551 325.757 144.249C325.757 152.948 333.328 160 342.667 160Z" fill="black"/>
</g>
<path d="M338.91 156.501C348.25 156.501 355.821 149.449 355.821 140.751C355.821 132.052 348.25 125 338.91 125C329.571 125 322 132.052 322 140.751C322 149.449 329.571 156.501 338.91 156.501Z" fill="#AFB3FF"/>
<g opacity="0.2">
<path d="M289.259 197.13C269.522 192.306 248.162 192.149 228.696 197.57C196.316 206.587 158.179 229.259 169.844 286.261C194.163 405.076 375.306 450.003 525.278 461.144C675.254 472.283 964.363 474.344 936.6 269.47C908.838 64.5961 610.569 183.188 566.785 206.408C503.576 239.93 347.604 211.389 289.259 197.13Z" fill="black"/>
</g>
<path d="M282.303 191.831C262.566 187.007 241.207 186.85 221.74 192.271C189.361 201.289 151.223 223.96 162.893 280.962C187.211 399.777 368.35 444.704 518.326 455.845C668.302 466.984 957.411 469.045 929.648 264.171C901.886 59.2973 603.617 177.89 559.833 201.109C496.621 234.631 340.652 206.091 282.303 191.831Z" fill="#AFB3FF"/>
<g opacity="0.2">
<path d="M783.788 459.038C797.882 466.403 814.635 470.292 831.55 469.347C859.681 467.777 896.383 456.213 904.075 408.196C920.106 308.113 790.946 239.993 676.296 204.602C561.646 169.213 334.889 116.645 296.1 286.727C257.311 456.808 526.971 413.705 568.276 402.69C627.908 386.79 742.123 437.266 783.788 459.038Z" fill="black"/>
</g>
<path d="M777.765 454.335C791.859 461.7 808.612 465.588 825.527 464.643C853.658 463.074 890.36 451.509 898.052 403.493C914.083 303.41 784.923 235.289 670.273 199.901C555.623 164.512 328.866 111.944 290.077 282.026C251.288 452.105 520.948 409.004 562.253 397.989C621.885 382.089 736.1 432.562 777.765 454.335Z" fill="#7D85DE"/>
<g opacity="0.2">
<path d="M123.845 264.1C123.845 270.521 118.257 275.726 111.363 275.726C104.47 275.726 98.8813 270.521 98.8813 264.1C98.8813 257.679 104.47 252.474 111.363 252.474C118.257 252.474 123.845 257.679 123.845 264.1Z" fill="black"/>
</g>
<path d="M117.964 258.626C117.964 265.046 112.375 270.251 105.482 270.251C98.5883 270.251 93 265.046 93 258.626C93 252.205 98.5883 247 105.482 247C112.375 247 117.964 252.205 117.964 258.626Z" fill="#5961BE"/>
<g opacity="0.2">
<path d="M32.3365 353.762C46.9491 353.762 58.795 342.728 58.795 329.118C58.795 315.508 46.9491 304.474 32.3365 304.474C17.7238 304.474 5.87793 315.508 5.87793 329.118C5.87793 342.728 17.7238 353.762 32.3365 353.762Z" fill="black"/>
</g>
<path d="M26.4586 348.287C41.0712 348.287 52.9171 337.254 52.9171 323.644C52.9171 310.033 41.0712 299 26.4586 299C11.8459 299 0 310.033 0 323.644C0 337.254 11.8459 348.287 26.4586 348.287Z" fill="#AFB3FF"/>
</svg>
