<svg width="110" height="107" viewBox="0 0 110 107" fill="none" xmlns="http://www.w3.org/2000/svg">
<g opacity="0.2">
<path d="M109.845 17.0999C109.845 23.5206 104.257 28.7255 97.3631 28.7255C90.4697 28.7255 84.8813 23.5206 84.8813 17.0999C84.8813 10.6793 90.4697 5.47437 97.3631 5.47437C104.257 5.47437 109.845 10.6793 109.845 17.0999Z" fill="black"/>
</g>
<path d="M103.964 11.6257C103.964 18.0463 98.3752 23.2512 91.4818 23.2512C84.5883 23.2512 79 18.0463 79 11.6257C79 5.20505 84.5883 0 91.4818 0C98.3752 0 103.964 5.20505 103.964 11.6257Z" fill="#5961BE"/>
<g opacity="0.2">
<path d="M49.6013 107C72.0159 107 90.1865 90.0756 90.1865 69.1985C90.1865 48.3214 72.0159 31.3972 49.6013 31.3972C27.1867 31.3972 9.01611 48.3214 9.01611 69.1985C9.01611 90.0756 27.1867 107 49.6013 107Z" fill="black"/>
</g>
<path d="M40.5852 98.6027C62.9998 98.6027 81.1704 81.6785 81.1704 60.8014C81.1704 39.9243 62.9998 23 40.5852 23C18.1706 23 0 39.9243 0 60.8014C0 81.6785 18.1706 98.6027 40.5852 98.6027Z" fill="#AFB3FF"/>
</svg>
