<svg width="103" height="84" viewBox="0 0 103 84" fill="none" xmlns="http://www.w3.org/2000/svg">
<g opacity="0.2">
<path d="M76.3365 54.7618C90.9491 54.7618 102.795 43.7284 102.795 30.118C102.795 16.5077 90.9491 5.47437 76.3365 5.47437C61.7238 5.47437 49.8779 16.5077 49.8779 30.118C49.8779 43.7284 61.7238 54.7618 76.3365 54.7618Z" fill="black"/>
</g>
<path d="M70.4586 49.2874C85.0712 49.2874 96.9171 38.2541 96.9171 24.6437C96.9171 11.0334 85.0712 0 70.4586 0C55.8459 0 44 11.0334 44 24.6437C44 38.2541 55.8459 49.2874 70.4586 49.2874Z" fill="#5961BE"/>
<g opacity="0.2">
<path d="M18.1493 83.7364C26.351 83.7364 32.9998 77.5437 32.9998 69.9046C32.9998 62.2655 26.351 56.0728 18.1493 56.0728C9.94761 56.0728 3.29883 62.2655 3.29883 69.9046C3.29883 77.5437 9.94761 83.7364 18.1493 83.7364Z" fill="black"/>
</g>
<path d="M14.8505 80.6637C23.0522 80.6637 29.7009 74.471 29.7009 66.8319C29.7009 59.1928 23.0522 53 14.8505 53C6.64878 53 0 59.1928 0 66.8319C0 74.471 6.64878 80.6637 14.8505 80.6637Z" fill="#AFB3FF"/>
</svg>
