<svg width="26" height="26" viewBox="0 0 26 26" fill="none" xmlns="http://www.w3.org/2000/svg">
<path fill-rule="evenodd" clip-rule="evenodd" d="M13.0002 14.6197C11.3655 14.6197 10.0352 13.2905 10.0352 11.6557C10.0352 10.021 11.3655 8.69064 13.0002 8.69064C14.635 8.69064 15.9642 10.021 15.9642 11.6557C15.9642 13.2905 14.635 14.6197 13.0002 14.6197ZM19.0821 5.0398C17.4235 3.32922 15.2633 2.38672 13.0002 2.38672C10.735 2.38672 8.57483 3.32922 6.91516 5.04089C5.23058 6.77855 4.30541 9.11314 4.378 11.4466C4.58275 18.0593 12.3719 23.2084 12.7045 23.424L12.9959 23.6136L13.2906 23.4272C13.6221 23.2171 21.4167 18.1926 21.6225 11.4456C21.694 9.11314 20.7677 6.77747 19.0821 5.0398Z" fill="#3B387E"/>
</svg>
