<svg width="28" height="28" viewBox="0 0 28 28" fill="none" xmlns="http://www.w3.org/2000/svg">
<circle cx="14" cy="14" r="14" fill="white"/>
<path fill-rule="evenodd" clip-rule="evenodd" d="M23.2471 17.8073C22.6387 15.9023 21.0262 14.8123 18.8137 14.8123H18.7979C17.8962 14.8039 17.0904 14.9856 16.4104 15.3331C18.3079 15.9423 19.7146 17.2939 20.3621 19.2064C21.3896 19.0639 22.2829 18.7481 23.0729 18.2656L23.3337 18.0998L23.2471 17.8073Z" fill="#3B387E"/>
<path fill-rule="evenodd" clip-rule="evenodd" d="M17.367 13.3735C17.7936 13.611 18.2761 13.7452 18.7978 13.7452C20.4336 13.7452 21.7611 12.4168 21.7611 10.781C21.7611 9.15352 20.4336 7.82518 18.7978 7.82518C18.4736 7.82518 18.1653 7.88102 17.8728 7.97518C18.2995 8.66352 18.5445 9.47685 18.5445 10.3385C18.5445 11.5085 18.1095 12.5677 17.367 13.3735Z" fill="#3B387E"/>
<path fill-rule="evenodd" clip-rule="evenodd" d="M11.5502 15.3178C10.886 14.9861 10.1035 14.8119 9.21852 14.8119H9.18685C6.97435 14.8119 5.36185 15.9028 4.76102 17.8069L4.66602 18.0994L4.92685 18.2653C5.67768 18.7244 6.56352 19.0319 7.55102 19.1903C8.20685 17.2703 9.63768 15.9103 11.5502 15.3178Z" fill="#3B387E"/>
<path fill-rule="evenodd" clip-rule="evenodd" d="M9.2028 13.7449C9.72447 13.7449 10.2061 13.6108 10.6336 13.3733C9.8903 12.5674 9.4553 11.5083 9.4553 10.3383C9.4553 9.47743 9.7003 8.66326 10.1278 7.97576C9.8353 7.88076 9.52697 7.82493 9.2028 7.82493C7.56697 7.82493 6.23864 9.15326 6.23864 10.7808C6.23864 12.4174 7.56697 13.7449 9.2028 13.7449Z" fill="#3B387E"/>
<path fill-rule="evenodd" clip-rule="evenodd" d="M13.9716 15.7527C13.9583 15.7527 13.9458 15.7527 13.9333 15.7527C11.0883 15.7527 9.01409 17.151 8.24242 19.5918L8.14909 19.8868L8.41326 20.0485C9.91992 20.9668 11.7199 21.4135 13.9158 21.4135H13.9866C16.1841 21.4135 17.9849 20.9668 19.4916 20.0485L19.7566 19.8868L19.6633 19.5918C18.8908 17.151 16.8174 15.7527 13.9716 15.7527Z" fill="#3B387E"/>
<path fill-rule="evenodd" clip-rule="evenodd" d="M14.0001 14.0987C16.0717 14.0987 17.7567 12.4137 17.7567 10.342C17.7567 8.27118 16.0717 6.58618 14.0001 6.58618C11.9284 6.58618 10.2434 8.27118 10.2434 10.342C10.2434 12.4137 11.9284 14.0987 14.0001 14.0987Z" fill="#3B387E"/>
</svg>
