<svg width="26" height="26" viewBox="0 0 26 26" fill="none" xmlns="http://www.w3.org/2000/svg">
<path fill-rule="evenodd" clip-rule="evenodd" d="M18.0219 15.005L14.8314 16.8413C14.2681 16.6463 12.6485 15.993 11.1676 14.5121C9.77769 13.1222 9.19702 11.5871 9.02694 11.0508L10.8675 7.85392L6.86244 2.35059L6.43994 2.59975C4.72611 3.60509 3.46727 4.86175 2.48252 6.55609L2.41969 6.72834C1.86286 9.69992 3.56261 14.0809 6.64902 17.6299C9.99761 21.4801 14.3429 23.6489 18.6589 23.6489C18.8539 23.6489 19.0489 23.6457 19.2439 23.6359L19.3728 23.6305L19.4844 23.5677C21.2199 22.5948 22.4809 21.3338 23.4526 19.5983L23.6855 19.1813L18.0219 15.005Z" fill="#3B387E"/>
</svg>
