<svg width="28" height="28" viewBox="0 0 28 28" fill="none" xmlns="http://www.w3.org/2000/svg">
<circle cx="14" cy="14" r="14" fill="white"/>
<path fill-rule="evenodd" clip-rule="evenodd" d="M20.5793 20.4672C19.6903 17.6558 17.3015 16.0449 14.0229 16.0449H13.9993C10.7119 16.0265 8.31089 17.6488 7.42014 20.4672L7.31689 20.7944L7.60914 20.9729C9.32239 22.0177 11.4591 22.547 13.9581 22.547C13.9861 22.547 14.0141 22.547 14.0413 22.547C16.5753 22.547 18.6525 22.0317 20.3903 20.9729L20.6825 20.7944L20.5793 20.4672Z" fill="#3B387E"/>
<path fill-rule="evenodd" clip-rule="evenodd" d="M13.9997 14.0953C16.3824 14.0953 18.3214 12.1571 18.3214 9.77451C18.3214 7.39101 16.3824 5.45288 13.9997 5.45288C11.6171 5.45288 9.67898 7.39101 9.67898 9.77451C9.67898 12.1571 11.6171 14.0953 13.9997 14.0953Z" fill="#3B387E"/>
</svg>
